<svg width="512" height="512" viewBox="0 0 512 512" fill="none" xmlns="http://www.w3.org/2000/svg">
  <rect width="512" height="512" rx="64" fill="#10B981"/>
  <path d="M256 64C256 64 320 96 320 160V352C320 416 256 448 256 448C256 448 192 416 192 352V160C192 96 256 64 256 64Z" fill="white"/>
  <path d="M256 128C256 128 288 144 288 176V336C288 368 256 384 256 384C256 384 224 368 224 336V176C224 144 256 128 256 128Z" fill="#10B981"/>
  <circle cx="256" cy="200" r="16" fill="white"/>
  <circle cx="256" cy="240" r="16" fill="white"/>
  <circle cx="256" cy="280" r="16" fill="white"/>
  <circle cx="256" cy="320" r="16" fill="white"/>
</svg>
